<svg width="1920" height="316" viewBox="0 0 1920 316" fill="none" xmlns="http://www.w3.org/2000/svg">
<g clip-path="url(#clip0_479_2226)">
<path d="M678.774 143.195L684.65 100.235C685.121 97.1303 685.673 94.9389 686.306 93.6606C686.938 92.3823 688.203 91.7432 690.101 91.7432C693.263 91.7432 694.447 94.665 693.654 100.509L687.812 143.195H732.832L737.501 109.274C740.031 91.1953 737.616 77.3166 730.268 67.638C722.92 57.9594 711.19 53.1201 695.068 53.1201H687.72C673.185 53.1201 662.042 57.6398 654.303 66.6793C646.564 75.7187 641.263 89.917 638.423 109.274L633.754 143.195H678.751H678.774Z" fill="white"/>
<path d="M428.66 170.291H476.923C475.382 169.264 474.933 166.924 475.623 163.238L484.397 99.9617C485.191 95.0311 486.847 92.5658 489.377 92.5658C493.01 92.5658 494.275 95.0311 493.171 99.9617L484.409 163.238C483.937 165.794 483.374 167.712 482.753 168.99C482.477 169.561 482.063 169.983 481.569 170.291H528.394L551.703 0.253906H506.913L496.725 74.7608C493.723 70.3781 491.274 67.0454 489.377 64.7627C487.479 62.48 484.673 60.2886 480.959 58.1885C477.245 56.0885 473.094 55.0384 468.517 55.0384H467.091C459.662 55.0384 453.545 58.4624 448.726 65.3105C443.908 72.1586 440.792 81.1524 439.366 92.2919L428.936 168.168C428.833 168.887 428.741 169.595 428.66 170.291Z" fill="white"/>
<path d="M550.282 56.6835L534.574 170.293H535.31L555.572 143.186H583.193L589.392 97.4866C589.863 94.3821 590.967 92.8299 592.715 92.8299C594.923 92.8299 595.797 94.5647 595.325 98.0344L590.817 130.905H630.157L637.033 80.5034C638.137 73.0161 637.275 66.9899 634.423 62.4245C631.583 57.8591 627.155 55.5764 621.153 55.5764H618.312C612.942 55.5764 607.882 57.7678 603.145 62.1506C598.407 66.5333 594.773 71.19 592.243 76.1206L594.854 56.6721H550.294L550.282 56.6835Z" fill="white"/>
<path d="M783.591 143.195L789.881 98.0429C790.675 93.295 792.331 90.921 794.86 90.921C797.862 90.921 798.966 93.295 798.184 98.0429L792.055 143.195H838.029L844.641 94.4819C846.377 82.0641 845.434 72.2942 841.801 65.1722C838.167 58.0503 832.164 54.4893 823.793 54.4893H822.367C811.937 54.4893 801.99 61.8852 792.503 76.677L795.343 56.6806H750.784L738.824 143.195H783.591Z" fill="white"/>
<path d="M326.957 170.291L342.677 56.6816H297.645L281.926 170.291H326.957Z" fill="white"/>
<path d="M275.36 170.291L277.729 0.253906H219.669L177.742 170.291H275.36ZM236.021 79.6914L233.652 133.106H224.406L236.021 79.6914Z" fill="white"/>
<path d="M349.317 8.2002H304.285L298.363 51.206H343.383L349.317 8.2002Z" fill="white"/>
<path d="M348.829 56.6824L333.121 170.292H378.06L387.938 97.4968C388.41 94.3924 389.514 92.8401 391.262 92.8401C393.47 92.8401 394.343 94.575 393.872 98.0447L389.364 130.915H428.703L435.58 80.5136C436.684 73.0264 435.822 67.0001 432.97 62.4347C430.129 57.8694 425.702 55.5867 419.7 55.5867H416.859C411.489 55.5867 406.429 57.7781 401.692 62.1608C396.954 66.5436 393.32 71.2003 390.79 76.1309L393.401 56.6824H348.841H348.829Z" fill="white"/>
<path d="M784.847 166.664C787.283 166.664 788.861 164.001 789.583 158.675L791.694 143.227H783.478L781.408 158.425C780.686 163.917 781.836 166.664 784.858 166.664H784.847Z" fill="#FEFE00"/>
<path d="M679.163 174.476C681.99 174.476 683.841 171.845 684.728 166.581L688.056 143.227H678.61L675.204 166.581C674.318 171.845 675.641 174.476 679.176 174.476H679.163Z" fill="#FEFE00"/>
<path d="M969.419 175.911C972.157 178.902 975.716 180.398 980.097 180.398C984.477 180.398 988.5 178.954 991.965 176.057C995.429 173.16 998.367 168.977 1000.79 163.507C1002.57 159.491 1003.99 154.9 1005.06 149.765H963.501C963.132 154.816 963.269 159.334 963.943 163.298C964.859 168.726 966.681 172.93 969.429 175.921L969.419 175.911Z" fill="#FEFE00"/>
<path fill-rule="evenodd" clip-rule="evenodd" d="M1031.49 143.459L1057.97 95.0508H2834.26V315.1H-564.773V254.29H327.698V251.098H-564.773V170.748H176.914L168.388 205.472H208.277L213.739 180.101H230.595L229.409 205.472H274.057L274.541 170.748H281.212L276.43 205.472H321.551L326.332 170.748H332.508L327.727 205.472H372.847L377.536 170.748H428.234C426.978 180.814 428.418 189.546 432.577 196.923C436.921 204.644 443.212 208.505 451.451 208.505H452.637C463.088 208.505 472.513 201.979 480.901 188.926L478.527 205.472H523.406L528.153 170.748H534.364L529.582 205.472H574.702L583.079 143.459H633.776L632.647 151.697C630.112 170.082 632.566 184.238 640.009 194.165C647.441 204.093 659.159 209.057 675.152 209.057H682.745C710.294 209.057 726.678 189.937 731.898 151.697L733.027 143.459H739.007L723.337 257.316H768.458L777.721 190.305C783.897 202.438 792.596 208.505 803.842 208.505H804.556C812.31 208.505 818.89 205.058 824.27 198.164C829.651 191.27 833.131 182.124 834.721 170.725L838.408 143.459H1031.49ZM2055.71 108.525H1091.09L1085.73 119.697H2055.71V108.525ZM1642.22 145.83H2824.2V149.736H1635.65L1642.22 145.83ZM1281.5 236.999L2319.23 234.074V287.273H1257.67L1281.5 236.999Z" fill="#FEFE00"/>
<path d="M1165.74 292.593H2130.36V303.764H1160.39L1165.74 292.593Z" fill="#FEFE00"/>
</g>
<defs>
<clipPath id="clip0_479_2226">
<rect width="1920" height="316" fill="white"/>
</clipPath>
</defs>
</svg>
