<svg width="394" height="140" viewBox="0 0 394 140" fill="none" xmlns="http://www.w3.org/2000/svg">
<g clip-path="url(#clip0_479_2248)">
<path d="M247.991 63.4408L250.58 44.4078C250.788 43.0324 251.031 42.0615 251.31 41.4952C251.589 40.9288 252.146 40.6457 252.982 40.6457C254.375 40.6457 254.897 41.9402 254.547 44.5291L251.974 63.4408H271.809L273.866 48.4126C274.981 40.403 273.917 34.2541 270.679 29.9662C267.442 25.6782 262.274 23.5342 255.171 23.5342H251.933C245.529 23.5342 240.62 25.5366 237.21 29.5414C233.8 33.5462 231.465 39.8366 230.213 48.4126L228.156 63.4408H247.981H247.991Z" fill="white"/>
<path d="M137.793 75.4453H159.057C158.378 74.9902 158.18 73.9537 158.484 72.3204L162.35 44.2867C162.7 42.1022 163.429 41.01 164.544 41.01C166.145 41.01 166.702 42.1022 166.216 44.2867L162.355 72.3204C162.147 73.453 161.899 74.3026 161.626 74.8689C161.504 75.1217 161.322 75.3088 161.104 75.4453H181.734L192.004 0.112305H172.27L167.781 33.1217C166.459 31.18 165.38 29.7035 164.544 28.6921C163.708 27.6808 162.472 26.71 160.835 25.7795C159.199 24.8491 157.37 24.3839 155.353 24.3839H154.725C151.452 24.3839 148.757 25.9009 146.634 28.9349C144.511 31.9688 143.138 35.9534 142.51 40.8886L137.915 74.5048C137.869 74.8234 137.828 75.1369 137.793 75.4453Z" fill="white"/>
<path d="M191.378 25.1126L184.457 75.4458H184.781L193.708 63.4364H205.878L208.609 43.1899C208.817 41.8145 209.303 41.1268 210.073 41.1268C211.046 41.1268 211.431 41.8954 211.223 43.4326L209.237 57.9955H226.569L229.599 35.6657C230.086 32.3485 229.706 29.6787 228.449 27.656C227.198 25.6334 225.247 24.6221 222.602 24.6221H221.351C218.985 24.6221 216.756 25.5929 214.668 27.5347C212.581 29.4764 210.98 31.5395 209.865 33.7239L211.015 25.1075H191.383L191.378 25.1126Z" fill="white"/>
<path d="M294.173 63.4404L296.944 43.4366C297.294 41.333 298.023 40.2813 299.138 40.2813C300.46 40.2813 300.947 41.333 300.602 43.4366L297.902 63.4404H318.158L321.071 41.8589C321.836 36.3573 321.42 32.0289 319.819 28.8736C318.218 25.7183 315.574 24.1406 311.885 24.1406H311.257C306.662 24.1406 302.279 27.4173 298.1 33.9706L299.351 25.1115H279.718L274.449 63.4404H294.173Z" fill="white"/>
<path d="M92.9848 75.4456L99.9106 25.1123H80.0704L73.1445 75.4456H92.9848Z" fill="white"/>
<path d="M70.2514 75.4453L71.2951 0.112305H45.7145L27.2422 75.4453H70.2514ZM52.919 35.3062L51.8753 58.971H47.8019L52.919 35.3062Z" fill="white"/>
<path d="M102.836 3.63281H82.996L80.3867 22.686H100.222L102.836 3.63281Z" fill="white"/>
<path d="M102.62 25.1124L95.6992 75.4457H115.499L119.851 43.1947C120.059 41.8193 120.545 41.1317 121.315 41.1317C122.288 41.1317 122.673 41.9003 122.465 43.4375L120.479 58.0004H137.812L140.841 35.6705C141.328 32.3534 140.948 29.6835 139.691 27.6609C138.44 25.6383 136.489 24.627 133.845 24.627H132.593C130.227 24.627 127.998 25.5978 125.911 27.5395C123.823 29.4813 122.222 31.5444 121.108 33.7288L122.258 25.1124H102.625H102.62Z" fill="white"/>
<path d="M294.724 73.8386C295.798 73.8386 296.493 72.6588 296.811 70.2991L297.741 63.4551H294.121L293.209 70.1885C292.891 72.6219 293.398 73.8386 294.729 73.8386H294.724Z" fill="#FEFE00"/>
<path d="M248.162 77.2998C249.408 77.2998 250.223 76.1339 250.614 73.8022L252.081 63.4551H247.919L246.418 73.8022C246.028 76.1339 246.611 77.2998 248.168 77.2998H248.162Z" fill="#FEFE00"/>
<path d="M376.047 77.9354C377.253 79.2606 378.822 79.9232 380.752 79.9232C382.682 79.9232 384.454 79.2837 385.98 78.0002C387.507 76.7168 388.801 74.8634 389.868 72.44C390.653 70.6607 391.279 68.6266 391.752 66.3516H373.44C373.277 68.5896 373.338 70.5912 373.635 72.3473C374.038 74.7521 374.841 76.6148 376.052 77.94L376.047 77.9354Z" fill="#FEFE00"/>
<path fill-rule="evenodd" clip-rule="evenodd" d="M337.304 63.558L348.97 42.1113H1197.67V139.601H-299.902V75.6482H26.8765L23.1199 91.032H40.6947L43.1009 79.7919H50.5278L50.005 91.032H69.6764L69.8896 75.6482H72.8289L70.7221 91.032H90.6017L92.7084 75.6482H95.4294L93.3227 91.032H113.202L115.268 75.6482H137.605C137.052 80.1076 137.686 83.9764 139.519 87.2446C141.433 90.6655 144.204 92.3759 147.834 92.3759H148.357C152.961 92.3759 157.114 89.4844 160.81 83.7015L159.764 91.032H179.537L181.628 75.6482H184.364L182.258 91.032H202.137L205.828 63.558H228.164L227.667 67.208C226.55 75.3529 227.631 81.6246 230.911 86.0228C234.185 90.4211 239.348 92.6203 246.394 92.6203H249.74C261.877 92.6203 269.096 84.1495 271.396 67.208L271.893 63.558H274.528L267.624 114.001H287.504L291.585 84.3124C294.306 89.6881 298.139 92.3759 303.093 92.3759H303.408C306.825 92.3759 309.723 90.8487 312.094 87.7944C314.465 84.74 315.998 80.6879 316.698 75.638L318.323 63.558H337.304ZM779.75 48.0811H354.75L352.391 53.0306H779.75V48.0811ZM368.466 64.6084H889.234V66.339H365.574L368.466 64.6084ZM328.5 105L785.712 103.704V127.273H318L328.5 105ZM-230.588 111.246H194.646V112.66H-232.949L-230.588 111.246Z" fill="#FEFE00"/>
<path d="M387.645 129.63H812.645V134.579H385.285L387.645 129.63Z" fill="#FEFE00"/>
</g>
<defs>
<clipPath id="clip0_479_2248">
<rect width="394" height="140" fill="white"/>
</clipPath>
</defs>
</svg>
