<svg width="572" height="143" viewBox="0 0 572 143" fill="none" xmlns="http://www.w3.org/2000/svg">
<g filter="url(#filter0_d_479_872)">
<path d="M549.104 70.3851L566.118 3.94998L126.138 25.6244L117.186 50.5534L4.30928 56.6157L77.9891 125.514L549.104 70.3851Z" fill="#fefe00"/>
</g>
<path d="M412.409 67.4203L410.575 78.0634L401.687 78.876L403.521 68.2329L412.409 67.4203ZM410.191 23.9751L421.021 22.985L410.163 65.9525L406.354 66.3007L410.191 23.9751Z" fill="#4C0361"/>
<path d="M383.367 26.4275L392.853 25.5603L390.352 60.1253L399.649 24.9389L409.21 24.0648L392.639 79.7032L381.361 80.7343L383.657 50.7711L375.536 81.267L363.81 82.339L366.338 27.9844L376.645 27.042L373.708 62.0107L383.367 26.4275Z" fill="#4C0361"/>
<path d="M363.158 41.3692L358.141 70.4901C357.436 74.5799 355.83 77.9275 353.323 80.5332C350.816 83.1388 347.72 84.61 344.035 84.9469L341.794 85.1517C337.861 85.5114 335.068 84.6512 333.418 82.5713C331.775 80.442 331.327 77.2094 332.075 72.8733L337.079 43.8263C338.692 34.4642 343.482 29.419 351.449 28.6906L353.69 28.4858C361.607 27.762 364.763 32.0565 363.158 41.3692ZM347.708 71.7349L352.904 41.5793C353.32 39.1649 352.657 38.0373 350.914 38.1966C349.121 38.3605 348.017 39.6497 347.601 42.0641L342.405 72.2197C342.032 74.3878 342.766 75.3876 344.608 75.2192C346.301 75.0644 347.335 73.903 347.708 71.7349Z" fill="#4C0361"/>
<path d="M311.527 32.9956L320.863 32.142L322.821 59.6068L327.66 31.5207L336.473 30.7149L326.998 85.7046L318.559 86.4762L316.062 57.0239L310.866 87.1796L302.052 87.9853L311.527 32.9956Z" fill="#4C0361"/>
<path d="M302.745 33.7985L289.532 67.8151L285.801 89.471L275.867 90.3792L279.535 69.0929L277.126 36.1406L287.06 35.2324L287.059 54.4376L293.782 34.6179L302.745 33.7985Z" fill="#4C0361"/>
<path d="M243.497 80.7534L250.769 38.5503L261.001 37.6148L253.666 80.1875C253.275 82.4541 253.901 83.5123 255.544 83.362C257.138 83.2164 258.13 82.0102 258.52 79.7436L265.856 37.1709L276.088 36.2354L268.816 78.4386C268.044 82.9225 266.437 86.4157 263.997 88.9182C261.614 91.3669 258.606 92.7574 254.971 93.0898L252.506 93.3151C244.938 94.007 241.935 89.8198 243.497 80.7534Z" fill="#4C0361"/>
<path d="M213.287 96.1005L222.762 41.1108L237.774 39.7383C241.16 39.4288 243.472 39.9448 244.712 41.2865C246 42.6236 246.335 45.0906 245.715 48.6876L244.454 56.0048C244.098 58.0743 243.303 59.8444 242.069 61.3151C240.894 62.732 239.679 63.6675 238.425 64.1217C241.931 64.8196 243.277 67.5337 242.462 72.264L240.882 81.4289C240.144 85.7157 238.858 88.9129 237.024 91.0205C235.191 93.128 232.731 94.3229 229.644 94.6051L213.287 96.1005ZM229.851 70.3615L227.461 70.58L224.723 86.4709L227.487 86.2182C228.433 86.1317 229.118 85.8508 229.543 85.3755C230.026 84.8463 230.395 83.8426 230.65 82.3644L232.191 73.4212C232.395 72.2386 232.315 71.4215 231.952 70.9697C231.647 70.4641 230.947 70.2614 229.851 70.3615ZM233.634 48.41L231.243 48.6285L228.989 61.7107L231.23 61.5059C232.126 61.4239 232.837 61.1407 233.361 60.6563C233.894 60.1226 234.267 59.2398 234.479 58.008L235.664 51.1342C236.003 49.1633 235.326 48.2552 233.634 48.41Z" fill="#4C0361"/>
<defs>
<filter id="filter0_d_479_872" x="0.309082" y="3.9502" width="565.81" height="138.564" filterUnits="userSpaceOnUse" color-interpolation-filters="sRGB">
<feFlood flood-opacity="0" result="BackgroundImageFix"/>
<feColorMatrix in="SourceAlpha" type="matrix" values="0 0 0 0 0 0 0 0 0 0 0 0 0 0 0 0 0 0 127 0" result="hardAlpha"/>
<feOffset dx="-4" dy="17"/>
<feComposite in2="hardAlpha" operator="out"/>
<feColorMatrix type="matrix" values="0 0 0 0 0.968627 0 0 0 0 0.0666667 0 0 0 0 0.560784 0 0 0 1 0"/>
<feBlend mode="normal" in2="BackgroundImageFix" result="effect1_dropShadow_479_872"/>
<feBlend mode="normal" in="SourceGraphic" in2="effect1_dropShadow_479_872" result="shape"/>
</filter>
</defs>
</svg>
